<svg xmlns="http://www.w3.org/2000/svg" viewBox="0 0 64 64">
  <defs>
    <linearGradient id="swampBase" x1="0" y1="0" x2="0" y2="1">
      <stop offset="0%" stop-color="#4f9f6e"/>
      <stop offset="70%" stop-color="#407857"/>
      <stop offset="100%" stop-color="#2f5a42"/>
    </linearGradient>
    <linearGradient id="swampBottom" x1="0" y1="0" x2="0" y2="1">
      <stop offset="0%" stop-color="#2a523e" stop-opacity="0"/>
      <stop offset="100%" stop-color="#1b3a2d" stop-opacity="0.6"/>
    </linearGradient>
    <pattern id="mud" width="18" height="18" patternUnits="userSpaceOnUse">
      <circle cx="9" cy="9" r="5.4" fill="#3c5d48" fill-opacity="0.48"/>
      <path d="M0 11 C5 8 11 8 18 11" stroke="#2f5740" stroke-opacity="0.42" fill="none" stroke-width="1.3"/>
    </pattern>
    <pattern id="moss" width="16" height="16" patternUnits="userSpaceOnUse">
      <ellipse cx="8" cy="11" rx="5" ry="2.5" fill="#5b8d65" fill-opacity="0.34"/>
      <ellipse cx="14" cy="4" rx="4.2" ry="2" fill="#4e7f5b" fill-opacity="0.28"/>
    </pattern>
  </defs>
  <rect width="64" height="64" fill="url(#swampBase)"/>
  <rect y="50.4" width="64" height="13.6" fill="url(#swampBottom)"/>
  <rect width="64" height="64" fill="url(#mud)"/>
  <rect width="64" height="64" fill="url(#moss)"/>
  <g fill="#4c8a6a" opacity="0.85">
    <ellipse cx="12" cy="48" rx="8" ry="5"/>
    <ellipse cx="40" cy="50" rx="10" ry="5.2"/>
    <ellipse cx="54" cy="44" rx="7.4" ry="4"/>
  </g>
  <g fill="#5fbf75" opacity="0.7">
    <ellipse cx="22" cy="36" rx="4" ry="3"/>
    <ellipse cx="50" cy="30" rx="3.2" ry="2.5"/>
    <ellipse cx="34" cy="20" rx="2.8" ry="2.1"/>
  </g>
  <g fill="#8f5e3b" opacity="0.45">
    <circle cx="30" cy="20" r="4"/>
    <circle cx="40" cy="16" r="3.2" opacity="0.58"/>
  </g>
  <g fill="#5ea16f" opacity="0.45">
    <ellipse cx="26" cy="56" rx="4.8" ry="2.2"/>
    <ellipse cx="48" cy="54" rx="5.2" ry="2.3"/>
  </g>
</svg>
